<svg xmlns="http://www.w3.org/2000/svg" xml:space="preserve" width="1500" height="1500" data-id="lg_Bq6Aas09HUOtRYvYlv" data-version="1"><path fill="#fff" stroke="transparent" d="M0 0h1500v1500H0z"/><g data-padding="20"><g transform="translate(-519.297 -511.512)scale(1.62972)"><path d="m978.305 856.563-9.87 19.75h-91.84l-108.62-175.28-23.2-16.78 7.4-14.81h27.65q33.58 0 53.08-17.04 19.5-17.03 19.5-46.66 0-39-21.72-64.92-21.73-25.92-63.2-25.92-27.65 0-50.86 16.29v307.6l51.85 17.77-9.88 19.75h-150.09v-15.31l46.41-36.53v-300.19l-51.35-16.79 9.87-19.75h57.28q44.93 0 88.37-2.96 31.6-1.98 46.91-1.98 33.08 0 59 13.34 25.92 13.33 39.99 36.04t14.07 49.86q0 24.69-15.3 47.16-15.31 22.46-40.24 39t-52.58 24.93l32.09 10.87 76.53 123.43Z"/><rect width="400.92" height="557.92" x="177.885" y="107.953" fill="none" rx="0" ry="0" transform="translate(400.5 399.46)"/></g><path fill="transparent" stroke="transparent" stroke-width="1.715" d="M406.09 250h687.82v1000H406.09z"/></g></svg>